<svg xmlns="http://www.w3.org/2000/svg" viewBox="0 0 147.33 100.13"><defs><style>.cls-1{fill:#9ad5ef;}</style></defs><title>Resurs 2</title><g id="Lager_2" data-name="Lager 2"><g id="Layer_1" data-name="Layer 1"><path class="cls-1" d="M56.78,13.29c7.45,5.54,8.79,9.39,11.51,14.63C78.62,13,80.7,9.06,91.67,7.16,83.16,3,74.86,8.47,68.84,15.9,62.33,8.19,50.59,4.26,43.72,7.33,48.29,8,53.1,10.59,56.78,13.29Z"/><path class="cls-1" d="M123.36,33.5c-5.87-2.86-14.12-2-22.84,8.74-5.59-6.63-17.5-12-25.12-8.58,4.58.63,9.39,3.26,13.07,6C95.92,45.17,97.26,49,100,54.26,110.45,39.1,112.44,35.39,123.36,33.5Z"/><path class="cls-1" d="M58.25,59.12c-6.45-7.65-18.19-11.67-25.12-8.58,4.57.63,9.38,3.27,13.06,6C53.64,62.05,55,65.9,57.7,71.14,68.53,55.45,70.27,52.25,81.08,50.38,72.57,46.23,64.25,51.72,58.25,59.12Z"/><path class="cls-1" d="M124.5,88.1c-6.09-7.21-17.85-11.81-25.12-8.57a22.73,22.73,0,0,1,7,2.28c12.18,6,15.2,13.76,17.56,18.32,10.82-15.66,12.62-18.9,23.38-20.76C138.82,75.21,130.5,80.7,124.5,88.1Z"/><path class="cls-1" d="M13.26,4.24c4.18,3.11,4.93,5.26,6.45,8.2,5.8-8.39,7-10.57,13.11-11.64C28.05-1.52,23.4,1.54,20,5.7,16.37,1.38,9.79-.82,5.94.9A17.2,17.2,0,0,1,13.26,4.24Z"/><path class="cls-1" d="M50.59,15.57c-3.29-1.61-7.91-1.13-12.8,4.9C34.66,16.76,28,13.76,23.7,15.66A17.2,17.2,0,0,1,31,19c4.18,3.1,4.93,5.26,6.45,8.2C43.35,18.71,44.47,16.63,50.59,15.57Z"/><path class="cls-1" d="M14.08,29.93C10.47,25.65,3.89,23.39,0,25.13a17.32,17.32,0,0,1,7.32,3.34c4.18,3.11,4.94,5.27,6.46,8.21,6.07-8.8,7-10.6,13.11-11.64C22.11,22.71,17.45,25.78,14.08,29.93Z"/><path class="cls-1" d="M51.23,46.19c-3.41-4-10-6.63-14.08-4.81a12.87,12.87,0,0,1,3.93,1.28c6.83,3.36,8.52,7.71,9.84,10.27C57,44.15,58,42.33,64,41.29,59.26,39,54.6,42,51.23,46.19Z"/></g></g></svg>