<?xml version="1.0" encoding="utf-8"?>
<!-- Generator: Adobe Illustrator 22.0.0, SVG Export Plug-In . SVG Version: 6.00 Build 0)  -->
<svg version="1.1" id="Lager_1" xmlns="http://www.w3.org/2000/svg" xmlns:xlink="http://www.w3.org/1999/xlink" x="0px" y="0px"
	 viewBox="0 0 147.3 100.1" style="enable-background:new 0 0 147.3 100.1;" xml:space="preserve">
<style type="text/css">
	.st0{fill:#9AD5EF;}
</style>
<title>Resurs 2</title>
<g>
	<path class="st0" d="M102.1,71.7c1.1,0.5,2.3,0.8,3.6,1c-1.3-0.8-2.3-2-2.8-3.5c1.2,0.7,2.6,1.2,4,1.5c1.2-1.2,2.8-2,4.6-2
		c3.5,0,6.3,2.8,6.3,6.3c0,0.5-0.1,1-0.2,1.4c5.2-0.3,9.9-2.8,13-6.6c0.5,0.9,0.9,2,0.9,3.2c0,2.2-1.1,4.1-2.8,5.2
		c1,0,2-0.3,2.9-0.8c0,0,0,0.1,0,0.1c0,3.1-2.2,5.6-5.1,6.2c0.5,0.1,1.1,0.2,1.7,0.2c0.4,0,0.8,0,1.2-0.1c-0.8,2.5-3.1,4.3-5.9,4.4
		c2.2,1.7,4.9,2.7,7.8,2.7c0.5,0,1,0,1.5-0.1c-2.8,1.8-6.1,2.8-9.7,2.8c-11.6,0-17.9-9.6-17.9-17.9c0-0.3,0-0.5,0-0.8
		C104.1,74.1,103,73,102.1,71.7z"/>
</g>
<g>
	<path class="st0" d="M84,31c1.1,0.5,2.3,0.8,3.6,1c-1.3-0.8-2.3-2-2.8-3.5c1.2,0.7,2.6,1.2,4,1.5c1.2-1.2,2.8-2,4.6-2
		c3.5,0,6.3,2.8,6.3,6.3c0,0.5-0.1,1-0.2,1.4c5.2-0.3,9.9-2.8,13-6.6c0.5,0.9,0.9,2,0.9,3.2c0,2.2-1.1,4.1-2.8,5.2
		c1,0,2-0.3,2.9-0.8c0,0,0,0.1,0,0.1c0,3.1-2.2,5.6-5.1,6.2c0.5,0.1,1.1,0.2,1.7,0.2c0.4,0,0.8,0,1.2-0.1c-0.8,2.5-3.1,4.3-5.9,4.4
		c2.2,1.7,4.9,2.7,7.8,2.7c0.5,0,1,0,1.5-0.1c-2.8,1.8-6.1,2.8-9.7,2.8C93.5,53,87.1,43.4,87.1,35c0-0.3,0-0.5,0-0.8
		C85.9,33.3,84.9,32.2,84,31z"/>
</g>
<g>
	<path class="st0" d="M41.7,50.5c1.1,0.5,2.3,0.8,3.6,1c-1.3-0.8-2.3-2-2.8-3.5c1.2,0.7,2.6,1.2,4,1.5c1.2-1.2,2.8-2,4.6-2
		c3.5,0,6.3,2.8,6.3,6.3c0,0.5-0.1,1-0.2,1.4c5.2-0.3,9.9-2.8,13-6.6c0.5,0.9,0.9,2,0.9,3.2c0,2.2-1.1,4.1-2.8,5.2
		c1,0,2-0.3,2.9-0.8c0,0,0,0.1,0,0.1c0,3.1-2.2,5.6-5.1,6.2c0.5,0.1,1.1,0.2,1.7,0.2c0.4,0,0.8,0,1.2-0.1c-0.8,2.5-3.1,4.3-5.9,4.4
		c2.2,1.7,4.9,2.7,7.8,2.7c0.5,0,1,0,1.5-0.1c-2.8,1.8-6.1,2.8-9.7,2.8c-11.6,0-17.9-9.6-17.9-17.9c0-0.3,0-0.5,0-0.8
		C43.6,52.9,42.6,51.8,41.7,50.5z"/>
</g>
<g>
	<path class="st0" d="M50.5,28.5c0.4,0.2,0.9,0.3,1.4,0.4c-0.5-0.3-0.9-0.8-1.1-1.4c0.5,0.3,1,0.5,1.6,0.6c0.5-0.5,1.1-0.8,1.8-0.8
		c1.4,0,2.5,1.1,2.5,2.5c0,0.2,0,0.4-0.1,0.6c2.1-0.1,3.9-1.1,5.1-2.6c0.2,0.4,0.3,0.8,0.3,1.2c0,0.9-0.4,1.6-1.1,2.1
		c0.4,0,0.8-0.1,1.1-0.3c0,0,0,0,0,0c0,1.2-0.9,2.2-2,2.4c0.2,0.1,0.4,0.1,0.7,0.1c0.2,0,0.3,0,0.5,0c-0.3,1-1.2,1.7-2.3,1.7
		c0.8,0.7,1.9,1.1,3.1,1.1c0.2,0,0.4,0,0.6,0c-1.1,0.7-2.4,1.1-3.8,1.1c-4.6,0-7-3.8-7-7c0-0.1,0-0.2,0-0.3
		C51.2,29.5,50.8,29,50.5,28.5z"/>
</g>
<g>
	<path class="st0" d="M55.9,9.5c0.9,0.4,1.8,0.6,2.8,0.8c-1-0.6-1.8-1.5-2.1-2.7c0.9,0.6,2,1,3.1,1.2c0.9-0.9,2.1-1.5,3.5-1.5
		c2.7,0,4.8,2.2,4.8,4.8c0,0.4,0,0.7-0.1,1.1c4-0.2,7.6-2.1,10-5.1c0.4,0.7,0.7,1.5,0.7,2.4c0,1.7-0.9,3.2-2.2,4
		c0.8,0,1.5-0.2,2.2-0.6c0,0,0,0,0,0.1c0,2.3-1.7,4.3-3.9,4.7c0.4,0.1,0.8,0.2,1.3,0.2c0.3,0,0.6,0,0.9-0.1
		c-0.6,1.9-2.4,3.3-4.5,3.4c1.7,1.3,3.7,2.1,6,2.1c0.4,0,0.8,0,1.2-0.1c-2.1,1.4-4.7,2.2-7.4,2.2c-8.9,0-13.8-7.4-13.8-13.8
		c0-0.2,0-0.4,0-0.6C57.4,11.3,56.5,10.5,55.9,9.5z"/>
</g>
<g>
	<path class="st0" d="M28.5,15.6c0.6,0.3,1.3,0.5,2,0.6c-0.7-0.4-1.3-1.1-1.6-2c0.7,0.4,1.4,0.7,2.3,0.9c0.6-0.7,1.6-1.1,2.6-1.1
		c2,0,3.5,1.6,3.5,3.5c0,0.3,0,0.5-0.1,0.8c2.9-0.1,5.6-1.6,7.3-3.7c0.3,0.5,0.5,1.1,0.5,1.8c0,1.2-0.6,2.3-1.6,2.9
		c0.6,0,1.1-0.2,1.6-0.4c0,0,0,0,0,0c0,1.7-1.2,3.1-2.8,3.5c0.3,0.1,0.6,0.1,0.9,0.1c0.2,0,0.5,0,0.7-0.1c-0.5,1.4-1.8,2.4-3.3,2.5
		c1.2,1,2.7,1.5,4.4,1.5c0.3,0,0.6,0,0.8,0c-1.6,1-3.4,1.6-5.4,1.6c-6.5,0-10.1-5.4-10.1-10.1c0-0.2,0-0.3,0-0.5
		C29.6,17,29,16.3,28.5,15.6z"/>
</g>
<g>
	<path class="st0" d="M5.5,28.7c0.9,0.4,1.8,0.7,2.8,0.8c-1-0.6-1.8-1.6-2.2-2.7c1,0.6,2,1,3.1,1.2c0.9-1,2.2-1.6,3.6-1.6
		c2.7,0,4.9,2.2,4.9,4.9c0,0.4,0,0.8-0.1,1.1c4.1-0.2,7.7-2.2,10.1-5.1c0.4,0.7,0.7,1.6,0.7,2.5c0,1.7-0.9,3.2-2.2,4.1
		c0.8,0,1.6-0.2,2.2-0.6c0,0,0,0,0,0.1c0,2.4-1.7,4.4-3.9,4.8c0.4,0.1,0.8,0.2,1.3,0.2c0.3,0,0.6,0,0.9-0.1c-0.6,2-2.4,3.4-4.6,3.4
		c1.7,1.3,3.8,2.1,6.1,2.1c0.4,0,0.8,0,1.2-0.1c-2.2,1.4-4.8,2.2-7.5,2.2c-9.1,0-14-7.5-14-14c0-0.2,0-0.4,0-0.6
		C7,30.6,6.1,29.7,5.5,28.7z"/>
</g>
<g>
	<path class="st0" d="M9.9,5.3c0.4,0.2,0.9,0.3,1.4,0.4c-0.5-0.3-0.9-0.8-1.1-1.4c0.5,0.3,1,0.5,1.6,0.6c0.5-0.5,1.1-0.8,1.8-0.8
		c1.4,0,2.5,1.1,2.5,2.5c0,0.2,0,0.4-0.1,0.6c2.1-0.1,3.9-1.1,5.1-2.6c0.2,0.4,0.3,0.8,0.3,1.2c0,0.9-0.4,1.6-1.1,2.1
		c0.4,0,0.8-0.1,1.1-0.3c0,0,0,0,0,0c0,1.2-0.9,2.2-2,2.4c0.2,0.1,0.4,0.1,0.7,0.1c0.2,0,0.3,0,0.5,0c-0.3,1-1.2,1.7-2.3,1.7
		c0.8,0.7,1.9,1.1,3.1,1.1c0.2,0,0.4,0,0.6,0c-1.1,0.7-2.4,1.1-3.8,1.1c-4.6,0-7-3.8-7-7c0-0.1,0-0.2,0-0.3
		C10.7,6.3,10.3,5.8,9.9,5.3z"/>
</g>
</svg>
