<?xml version="1.0" encoding="utf-8"?>
<!-- Generator: Adobe Illustrator 22.0.0, SVG Export Plug-In . SVG Version: 6.00 Build 0)  -->
<svg version="1.1" id="Lager_1" xmlns="http://www.w3.org/2000/svg" xmlns:xlink="http://www.w3.org/1999/xlink" x="0px" y="0px"
	 viewBox="0 0 147.3 100.1" style="enable-background:new 0 0 147.3 100.1;" xml:space="preserve">
<style type="text/css">
	.st0{fill:#9AD5EF;}
</style>
<title>Resurs 2</title>
<g>
	<path class="st0" d="M33.1,74.9c0,0.3,0,0.5,0,0.8c0,8.3-6.3,17.9-17.9,17.9c-3.6,0-6.9-1-9.7-2.8c0.5,0.1,1,0.1,1.5,0.1
		c2.9,0,5.6-1,7.8-2.7c-2.8-0.1-5.1-1.9-5.9-4.4c0.4,0.1,0.8,0.1,1.2,0.1c0.6,0,1.2-0.1,1.7-0.2c-2.9-0.6-5.1-3.1-5.1-6.2v-0.1
		c0.9,0.5,1.9,0.8,2.9,0.8c-1.7-1.1-2.8-3-2.8-5.2c0-1.2,0.4-2.3,0.9-3.2c3.1,3.8,7.8,6.3,13,6.6c-0.1-0.4-0.2-0.9-0.2-1.4
		c0-3.5,2.8-6.3,6.3-6.3c1.8,0,3.4,0.8,4.6,2c1.4-0.3,2.8-0.8,4-1.5c-0.5,1.5-1.5,2.7-2.8,3.5c1.3-0.2,2.5-0.5,3.6-1
		C35.3,73,34.2,74.1,33.1,74.9z"/>
</g>
<g>
	<path class="st0" d="M51.2,34.2c0,0.3,0,0.5,0,0.8c0,8.4-6.4,18-17.9,17.9c-3.6,0-6.9-1-9.7-2.8c0.5,0.1,1,0.1,1.5,0.1
		c2.9,0,5.6-1,7.8-2.7c-2.8-0.1-5.1-1.9-5.9-4.4c0.4,0.1,0.8,0.1,1.2,0.1c0.6,0,1.2-0.1,1.7-0.2c-2.9-0.6-5.1-3.1-5.1-6.2v-0.1
		c0.9,0.5,1.9,0.8,2.9,0.8c-1.7-1.1-2.8-3-2.8-5.2c0-1.2,0.4-2.3,0.9-3.2c3.1,3.8,7.8,6.3,13,6.6c-0.1-0.4-0.2-0.9-0.2-1.4
		c0-3.5,2.8-6.3,6.3-6.3c1.8,0,3.4,0.8,4.6,2c1.4-0.3,2.8-0.8,4-1.5C53,30,52,31.2,50.7,32c1.3-0.2,2.5-0.5,3.6-1
		C53.4,32.2,52.4,33.3,51.2,34.2z"/>
</g>
<g>
	<path class="st0" d="M93.5,53.7c0,0.3,0,0.5,0,0.8c0,8.3-6.3,17.9-17.9,17.9c-3.6,0-6.9-1-9.7-2.8c0.5,0.1,1,0.1,1.5,0.1
		c2.9,0,5.6-1,7.8-2.7c-2.8-0.1-5.1-1.9-5.9-4.4c0.4,0.1,0.8,0.1,1.2,0.1c0.6,0,1.2-0.1,1.7-0.2c-2.9-0.6-5.1-3.1-5.1-6.2v-0.1
		C68,56.7,69,57,70,57c-1.7-1.1-2.8-3-2.8-5.2c0-1.2,0.4-2.3,0.9-3.2c3.1,3.8,7.8,6.3,13,6.6c-0.1-0.4-0.2-0.9-0.2-1.4
		c0-3.5,2.8-6.3,6.3-6.3c1.8,0,3.4,0.8,4.6,2c1.4-0.3,2.8-0.8,4-1.5c-0.5,1.5-1.5,2.7-2.8,3.5c1.3-0.2,2.5-0.5,3.6-1
		C95.7,51.8,94.7,52.9,93.5,53.7z"/>
</g>
<g>
	<path class="st0" d="M86.5,29.9c0,0.1,0,0.2,0,0.3c0,3.2-2.4,7-7,7c-1.4,0-2.7-0.4-3.8-1.1c0.2,0,0.4,0,0.6,0
		c1.2,0,2.3-0.4,3.1-1.1c-1.1,0-2-0.7-2.3-1.7c0.2,0,0.3,0,0.5,0c0.3,0,0.5,0,0.7-0.1c-1.1-0.2-2-1.2-2-2.4l0,0
		c0.3,0.2,0.7,0.3,1.1,0.3c-0.7-0.5-1.1-1.2-1.1-2.1c0-0.4,0.1-0.8,0.3-1.2c1.2,1.5,3,2.5,5.1,2.6c-0.1-0.2-0.1-0.4-0.1-0.6
		c0-1.4,1.1-2.5,2.5-2.5c0.7,0,1.3,0.3,1.8,0.8c0.6-0.1,1.1-0.3,1.6-0.6c-0.2,0.6-0.6,1.1-1.1,1.4c0.5-0.1,1-0.2,1.4-0.4
		C87.5,29,87.1,29.5,86.5,29.9z"/>
</g>
<g>
	<path class="st0" d="M79.9,12c0,0.2,0,0.4,0,0.6c0,6.4-4.9,13.8-13.8,13.8c-2.7,0-5.3-0.8-7.4-2.2c0.4,0.1,0.8,0.1,1.2,0.1
		c2.3,0,4.3-0.8,6-2.1c-2.1-0.1-3.9-1.5-4.5-3.4c0.3,0.1,0.6,0.1,0.9,0.1c0.5,0,0.9-0.1,1.3-0.2c-2.2-0.4-3.9-2.4-3.9-4.7
		c0-0.1,0-0.1,0-0.1c0.7,0.4,1.4,0.6,2.2,0.6c-1.3-0.8-2.2-2.3-2.2-4c0-0.9,0.3-1.7,0.7-2.4c2.4,3,6,4.9,10,5.1
		c-0.1-0.4-0.1-0.7-0.1-1.1c0-2.6,2.1-4.8,4.8-4.8c1.4,0,2.6,0.6,3.5,1.5c1.1-0.2,2.2-0.6,3.1-1.2c-0.3,1.2-1.1,2.1-2.1,2.7
		c1-0.2,1.9-0.4,2.8-0.8C81.8,10.5,80.9,11.3,79.9,12z"/>
</g>
<g>
	<path class="st0" d="M108.1,17.4c0,0.2,0,0.3,0,0.5c0,4.7-3.6,10.1-10.1,10.1c-2,0-3.8-0.6-5.4-1.6c0.2,0,0.5,0,0.8,0
		c1.7,0,3.2-0.5,4.4-1.5c-1.5-0.1-2.8-1.1-3.3-2.5c0.2,0.1,0.5,0.1,0.7,0.1c0.3,0,0.6,0,0.9-0.1c-1.6-0.4-2.8-1.8-2.8-3.5l0,0
		c0.5,0.2,1,0.4,1.6,0.4c-1-0.6-1.6-1.7-1.6-2.9c0-0.7,0.2-1.3,0.5-1.8c1.7,2.1,4.4,3.6,7.3,3.7c-0.1-0.3-0.1-0.5-0.1-0.8
		c0-1.9,1.5-3.5,3.5-3.5c1,0,2,0.4,2.6,1.1c0.9-0.2,1.6-0.5,2.3-0.9c-0.3,0.9-0.9,1.6-1.6,2c0.7-0.1,1.4-0.3,2-0.6
		C109.3,16.3,108.7,17,108.1,17.4z"/>
</g>
<g>
	<path class="st0" d="M130.4,31.3c0,0.2,0,0.4,0,0.6c0,6.5-4.9,14-14,14c-2.7,0-5.3-0.8-7.5-2.2c0.4,0.1,0.8,0.1,1.2,0.1
		c2.3,0,4.4-0.8,6.1-2.1c-2.2,0-4-1.4-4.6-3.4c0.3,0.1,0.6,0.1,0.9,0.1c0.5,0,0.9-0.1,1.3-0.2c-2.2-0.4-3.9-2.4-3.9-4.8
		c0-0.1,0-0.1,0-0.1c0.6,0.4,1.4,0.6,2.2,0.6c-1.3-0.9-2.2-2.4-2.2-4.1c0-0.9,0.3-1.8,0.7-2.5c2.4,2.9,6,4.9,10.1,5.1
		c-0.1-0.3-0.1-0.7-0.1-1.1c0-2.7,2.2-4.9,4.9-4.9c1.4,0,2.7,0.6,3.6,1.6c1.1-0.2,2.1-0.6,3.1-1.2c-0.4,1.1-1.2,2.1-2.2,2.7
		c1-0.1,1.9-0.4,2.8-0.8C132.2,29.7,131.3,30.6,130.4,31.3z"/>
</g>
<g>
	<path class="st0" d="M127.1,6.7c0,0.1,0,0.2,0,0.3c0,3.2-2.4,7-7,7c-1.4,0-2.7-0.4-3.8-1.1c0.2,0,0.4,0,0.6,0
		c1.2,0,2.3-0.4,3.1-1.1c-1.1,0-2-0.7-2.3-1.7c0.2,0,0.3,0,0.5,0c0.3,0,0.5,0,0.7-0.1c-1.1-0.2-2-1.2-2-2.4l0,0
		c0.3,0.2,0.7,0.3,1.1,0.3c-0.7-0.5-1.1-1.2-1.1-2.1c0-0.4,0.1-0.8,0.3-1.2c1.2,1.5,3,2.5,5.1,2.6c-0.1-0.2-0.1-0.4-0.1-0.6
		c0-1.4,1.1-2.5,2.5-2.5c0.7,0,1.3,0.3,1.8,0.8c0.6-0.1,1.1-0.3,1.6-0.6c-0.2,0.6-0.6,1.1-1.1,1.4c0.5-0.1,1-0.2,1.4-0.4
		C128,5.8,127.6,6.3,127.1,6.7z"/>
</g>
</svg>
