<svg xmlns="http://www.w3.org/2000/svg" viewBox="0 0 515.82 511.47"><defs><style>.cls-1{fill:#f23d3d;}.cls-2{fill:#f95c58;}.cls-3{fill:#9ad3e2;}.cls-4{fill:#d6eaf2;}.cls-5{fill:#e8f4f9;}.cls-6{fill:#b2dbea;}.cls-7{fill:#3594b5;}.cls-8{fill:#4f9ec1;}.cls-9{fill:#dfe9ef;}.cls-10{fill:#f0f4f7;}.cls-11{fill:#83badb;}.cls-12{fill:#aacee8;}.cls-13{fill:#caedf9;}.cls-14{fill:#abe1ef;}.cls-15{fill:#e6faff;}.cls-16{fill:#e3f7fc;}.cls-17{fill:#70e5f9;}.cls-18{fill:#3079aa;}.cls-19{fill:#c6e3f4;}.cls-20{fill:#136491;}.cls-21{fill:#69b3d1;}.cls-22{fill:#83bedb;}.cls-23{fill:#f2f6f9;}.cls-24{fill:#f25f5f;}</style></defs><title>boat</title><g id="Lager_2" data-name="Lager 2"><g id="Layer_1" data-name="Layer 1"><path class="cls-1" d="M222.82,0C199.58,0,173,22.72,127.61,12.82,169.21,37,217.4,33.07,226.87,33.07,226.87,17.44,222.82,0,222.82,0Z"/><path class="cls-2" d="M222.82,0C199.58,0,173,22.72,127.61,12.82a140.18,140.18,0,0,0,31.6,13.34A302.54,302.54,0,0,0,225,11.82C224,4.89,222.82,0,222.82,0Z"/><rect class="cls-3" x="222.82" width="6.07" height="68.11"/><path class="cls-4" d="M228,44.79c1.28,14,92.22,187.11,223.73,230.83H226.9Z"/><path class="cls-5" d="M420.27,275.62h31.44C320.2,231.9,229.26,58.82,228,44.79L227.44,161C284.67,219.89,309.53,248.6,420.27,275.62Z"/><rect class="cls-6" x="228.89" y="274.67" width="223.85" height="1.9"/><path class="cls-4" d="M218.67,40.36C106.86,80.28,9.8,310.45,1,363.87H222.82Z"/><path class="cls-5" d="M208.41,44.57C101,94.25,9.53,312.09,1,363.87h76.5C192.88,286.27,217.64,191.55,208.41,44.57Z"/><rect class="cls-6" y="362.92" width="223.85" height="1.9"/><rect class="cls-7" x="218.67" y="40.36" width="14.38" height="371.5"/><rect class="cls-8" x="218.67" y="181.36" width="7.19" height="230.5"/><rect class="cls-8" x="218.67" y="40.36" width="7.19" height="97.53"/><path class="cls-9" d="M433.81,98.21a15.48,15.48,0,0,0-3.13-28.93,18.11,18.11,0,1,0-33.46-9.6q0,.45,0,.9a12.92,12.92,0,0,0-6.44,19.9A19.42,19.42,0,0,0,412,112.11a13.51,13.51,0,1,0,21.8-13.9Z"/><path class="cls-10" d="M430.64,96.9a13.95,13.95,0,0,0-5-26.49,16.58,16.58,0,1,0-27.76-12.25A16.08,16.08,0,0,0,398,60a11.58,11.58,0,0,0-7.58,19.26,18,18,0,0,0,22.07,28.43A11.72,11.72,0,1,0,430.64,96.9Z"/><path class="cls-9" d="M428.35,81.78a9.38,9.38,0,0,1,.57,3.23,9.49,9.49,0,0,1-9.49,9.49,9.38,9.38,0,0,1-3.23-.57,8.77,8.77,0,0,0,12.15-12.15Z"/><path class="cls-9" d="M423.45,64.07A9.8,9.8,0,0,1,420.8,66a9.49,9.49,0,0,1-13.63-7.46,8.78,8.78,0,0,0,16.28,5.52Z"/><path class="cls-9" d="M412.89,85.51a9.75,9.75,0,0,1-2.64,1.94,9.49,9.49,0,0,1-12.71-4.31,9.31,9.31,0,0,1-.92-3.15,8.68,8.68,0,0,0,.84,4.94,8.77,8.77,0,0,0,15.43.58Z"/><rect class="cls-11" x="380.79" y="125.95" width="74.11" height="91.74"/><polygon class="cls-12" points="442.24 217.68 380.79 217.68 380.79 135.75 442.24 143.89 442.24 217.68"/><rect class="cls-8" x="374.26" y="116.92" width="87.17" height="17.9"/><path class="cls-9" d="M372.14,124.31a10.65,10.65,0,0,0-2.15-19.9,12.45,12.45,0,1,0-23-6.6c0,.21,0,.41,0,.62a8.87,8.87,0,0,0-4.43,13.68,13.36,13.36,0,0,0,14.58,21.76,9.3,9.3,0,1,0,15-9.56Z"/><path class="cls-10" d="M370.54,123.41a9.59,9.59,0,0,0-3.43-18.22A11.4,11.4,0,1,0,348,96.76c0,.43,0,.85.07,1.27a8,8,0,0,0-5.21,13.25,12.4,12.4,0,0,0,15.18,19.55,8.06,8.06,0,1,0,12.48-7.42Z"/><path class="cls-9" d="M368.38,113a6.28,6.28,0,0,1,.39,2.22,6.52,6.52,0,0,1-8.74,6.14,6,6,0,0,0,9.34-5.06A5.94,5.94,0,0,0,368.38,113Z"/><path class="cls-9" d="M365,100.83a6.63,6.63,0,0,1-1.82,1.33,6.52,6.52,0,0,1-8.74-3,6.36,6.36,0,0,1-.64-2.17,6,6,0,0,0,11.2,3.8Z"/><path class="cls-9" d="M357.75,115.57a6.46,6.46,0,0,1-1.82,1.34,6.53,6.53,0,0,1-8.74-3,6.66,6.66,0,0,1-.64-2.17,6,6,0,0,0,8.67,6.14A6,6,0,0,0,357.75,115.57Z"/><rect class="cls-11" x="338.17" y="145.04" width="58.68" height="72.64"/><polygon class="cls-12" points="386.82 217.68 338.17 217.68 338.17 152.8 386.82 159.25 386.82 217.68"/><rect class="cls-8" x="333" y="137.89" width="69.02" height="14.17"/><rect class="cls-13" x="281.09" y="218.47" width="184.63" height="202.42"/><rect class="cls-14" x="281.09" y="216.96" width="184.63" height="202.42"/><polygon class="cls-13" points="281.09 226.9 281.09 419.38 465.72 419.38 465.72 242.19 281.09 226.9"/><polygon class="cls-15" points="281.09 226.9 281.09 419.38 288.23 419.38 288.23 227.49 281.09 226.9"/><polygon class="cls-14" points="439.22 255.07 445.8 260.73 445.8 317.46 439.22 317.46 439.22 255.07"/><rect class="cls-16" x="366.05" y="255.07" width="73.17" height="70.68"/><rect class="cls-17" x="373.71" y="261.39" width="57.84" height="25.7"/><polygon class="cls-18" points="45.07 374.08 45.07 378.99 75.51 378.99 75.51 426.61 86.41 426.61 86.41 378.99 131.17 378.99 131.17 426.61 142.07 426.61 142.07 378.99 186.83 378.99 186.83 426.61 197.73 426.61 197.73 378.99 242.49 378.99 242.49 426.61 253.38 426.61 253.38 378.99 298.15 378.99 298.15 426.61 309.04 426.61 309.04 378.99 338.86 378.99 338.86 374.08 45.07 374.08"/><polygon class="cls-18" points="515.82 289.63 338.86 289.63 338.86 294.54 369.3 294.54 369.3 342.16 380.19 342.16 380.19 294.54 424.96 294.54 424.96 342.16 435.85 342.16 435.85 294.54 480.62 294.54 480.62 342.16 491.51 342.16 491.51 294.54 515.82 294.54 515.82 289.63"/><path class="cls-11" d="M506.36,312.25H349.89s-19.45,90.47-62.23,90.47H37.13S58.88,511.47,107.5,511.47H390.29C460,511.47,506.36,411.86,506.36,312.25Z"/><path class="cls-12" d="M363.9,485.08c63.57,0,107.68-82.75,115-172.83h-129s-19.45,90.47-62.23,90.47H37.13s9.36,46.8,29.53,79a33.35,33.35,0,0,0,14.45,3.36Z"/><path class="cls-19" d="M355.26,317.63H478.41c.17-1.79.34-3.58.48-5.38h-129s-19.45,90.47-62.23,90.47H37.13s.4,2,1.2,5.38H293C335.81,408.1,355.26,317.63,355.26,317.63Z"/><path class="cls-11" d="M452,457.57l-12.28,8.55,6.82-.61c-3.4,8.28-12,10.65-19.28,11.15V443.91h9.61v-3.39h-9.61v-9.85a9.86,9.86,0,0,0-1.59-18.87v-30a2,2,0,0,0-4,0v30.05a9.86,9.86,0,0,0-1.45,18.84v9.85h-9.61v3.39h9.61v32.75c-7.26-.5-15.87-2.87-19.28-11.15l6.82.61-12.28-8.55-1.83,13.3,3.88-3.27c2.36,9.37,15.41,16.19,26.22,16.19S447.58,477,450,467.6l3.88,3.27Zm-28.26-31.72a4.39,4.39,0,0,1-2-8.31,2,2,0,0,0,3.8-.06,4.39,4.39,0,0,1-1.83,8.37Z"/><path class="cls-11" d="M139.61,439.8a23,23,0,1,0-23,22.95A23,23,0,0,0,139.61,439.8Zm-35.4,0a12.44,12.44,0,1,1,12.44,12.43A12.44,12.44,0,0,1,104.21,439.8Z"/><path class="cls-11" d="M201.58,439.8a23,23,0,1,0-23,22.95A23,23,0,0,0,201.58,439.8Zm-35.4,0a12.44,12.44,0,1,1,12.44,12.43A12.44,12.44,0,0,1,166.18,439.8Z"/><path class="cls-11" d="M263.55,439.8a23,23,0,1,0-23,22.95A23,23,0,0,0,263.55,439.8Zm-35.39,0a12.44,12.44,0,1,1,12.44,12.43A12.44,12.44,0,0,1,228.16,439.8Z"/><rect class="cls-8" x="248.73" y="213.84" width="249.35" height="9.25"/><path class="cls-20" d="M448.19,454.49,435.91,463l6.81-.6c-3.4,8.28-12,10.64-19.28,11.15V440.84h9.62v-3.39h-9.62v-9.86a9.86,9.86,0,1,0-7,0v9.86h-9.62v3.39h9.62v32.75c-7.27-.51-15.88-2.87-19.29-11.15l6.82.6-12.28-8.55-1.83,13.3,3.88-3.26c2.36,9.37,15.41,16.18,26.22,16.18s23.86-6.81,26.22-16.18l3.88,3.26ZM419.92,414a4.39,4.39,0,1,1-4.39,4.39A4.4,4.4,0,0,1,419.92,414Z"/><circle class="cls-21" cx="419.92" cy="369.35" r="13.5"/><circle class="cls-22" cx="423.89" cy="369.35" r="9.53"/><path class="cls-13" d="M419.85,415.84h0a2,2,0,0,1-2-2V378.7a2,2,0,0,1,2-2h0a2,2,0,0,1,2,2v35.14A2,2,0,0,1,419.85,415.84Z"/><path class="cls-23" d="M136.74,436.32a23,23,0,1,0-23,23A23,23,0,0,0,136.74,436.32Zm-35.4,0a12.44,12.44,0,1,1,12.44,12.44A12.43,12.43,0,0,1,101.34,436.32Z"/><path class="cls-24" d="M113.78,423.89A12.26,12.26,0,0,1,119,425l1.19-10.76a23.21,23.21,0,0,0-12.8,0L108.57,425A12.26,12.26,0,0,1,113.78,423.89Z"/><path class="cls-24" d="M120.18,458.38,119,447.62a12.48,12.48,0,0,1-10.42,0l-1.19,10.76a23.21,23.21,0,0,0,12.8,0Z"/><path class="cls-24" d="M126.22,436.32a12.41,12.41,0,0,1-1.14,5.21l10.75,1.19a22.93,22.93,0,0,0,0-12.79l-10.75,1.18A12.44,12.44,0,0,1,126.22,436.32Z"/><path class="cls-24" d="M101.34,436.32a12.44,12.44,0,0,1,1.14-5.21l-10.75-1.18a22.93,22.93,0,0,0,0,12.79l10.75-1.19A12.41,12.41,0,0,1,101.34,436.32Z"/><path class="cls-23" d="M198.71,436.32a23,23,0,1,0-23,23A23,23,0,0,0,198.71,436.32Zm-35.4,0a12.44,12.44,0,1,1,12.44,12.44A12.43,12.43,0,0,1,163.31,436.32Z"/><path class="cls-24" d="M175.75,423.89A12.26,12.26,0,0,1,181,425l1.19-10.76a23.17,23.17,0,0,0-12.79,0L170.54,425A12.29,12.29,0,0,1,175.75,423.89Z"/><path class="cls-24" d="M182.15,458.38,181,447.62a12.48,12.48,0,0,1-10.42,0l-1.18,10.76a23.17,23.17,0,0,0,12.79,0Z"/><path class="cls-24" d="M188.19,436.32a12.41,12.41,0,0,1-1.14,5.21l10.76,1.19a23.17,23.17,0,0,0,0-12.79l-10.76,1.18A12.44,12.44,0,0,1,188.19,436.32Z"/><path class="cls-24" d="M163.31,436.32a12.3,12.3,0,0,1,1.15-5.21l-10.76-1.18a23.17,23.17,0,0,0,0,12.79l10.76-1.19A12.26,12.26,0,0,1,163.31,436.32Z"/><path class="cls-23" d="M260.69,436.32a23,23,0,1,0-23,23A23,23,0,0,0,260.69,436.32Zm-35.4,0a12.44,12.44,0,1,1,12.44,12.44A12.43,12.43,0,0,1,225.29,436.32Z"/><path class="cls-24" d="M237.73,423.89a12.29,12.29,0,0,1,5.21,1.14l1.19-10.76a23.21,23.21,0,0,0-12.8,0L232.52,425A12.26,12.26,0,0,1,237.73,423.89Z"/><path class="cls-24" d="M244.13,458.38l-1.19-10.76a12.48,12.48,0,0,1-10.42,0l-1.19,10.76a23.21,23.21,0,0,0,12.8,0Z"/><path class="cls-24" d="M250.17,436.32a12.41,12.41,0,0,1-1.14,5.21l10.75,1.19a22.93,22.93,0,0,0,0-12.79L249,431.11A12.44,12.44,0,0,1,250.17,436.32Z"/><path class="cls-24" d="M225.29,436.32a12.44,12.44,0,0,1,1.14-5.21l-10.76-1.18a23.17,23.17,0,0,0,0,12.79l10.76-1.19A12.41,12.41,0,0,1,225.29,436.32Z"/><path class="cls-9" d="M376.05,46.72l-.53,0a15.2,15.2,0,0,0,.06-7.73,8.72,8.72,0,1,0-13.27-11.29,12.63,12.63,0,0,0-1.38-.07,15.12,15.12,0,1,0,4.89,29.43,10.24,10.24,0,1,0,10.23-10.36Z"/><path class="cls-10" d="M374.59,46.72a9.31,9.31,0,0,0-1.91.2,13.79,13.79,0,0,0,1.16-5.53,14.27,14.27,0,0,0-.35-3.09,7.91,7.91,0,0,0-11.78-10.55,14.35,14.35,0,0,0-1.61-.1,13.74,13.74,0,1,0,5.14,26.49,9.31,9.31,0,0,0-.26,2.19,9.61,9.61,0,1,0,9.61-9.61Z"/><path class="cls-9" d="M370.21,41.13a6.21,6.21,0,0,1-7.95,7.95,5.74,5.74,0,0,0,7.95-7.95Z"/></g></g></svg>