<?xml version="1.0"?>

<!DOCTYPE svg PUBLIC '-//W3C//DTD SVG 1.0//EN' 'http://www.w3.org/TR/2001/REC-SVG-20010904/DTD/svg10.dtd'>
<svg fill-opacity="1" xmlns:xlink="http://www.w3.org/1999/xlink" color-rendering="auto" color-interpolation="auto" text-rendering="auto" stroke="black" stroke-linecap="square" stroke-miterlimit="10" shape-rendering="auto" stroke-opacity="1" fill="black" stroke-dasharray="none" font-weight="normal" stroke-width="1" xmlns="http://www.w3.org/2000/svg" font-family="&apos;Dialog&apos;" font-style="normal" stroke-linejoin="miter" font-size="12" stroke-dashoffset="0" image-rendering="auto">
  <!--Unicode Character 'CIRCLED INFORMATION SOURCE' (U+1F6C8)-->
  <defs id="genericDefs" />
  <g>
    <g>
      <path d="M259.1719 206.4375 Q259.1719 254.3906 225.5625 287.9297 Q191.9531 321.4688 144 321.4688 Q96.0469 321.4688 62.4375 287.9297 Q28.8281 254.3906 28.8281 206.4375 Q28.8281 158.4844 62.4375 124.875 Q96.0469 91.2656 144 91.2656 Q191.9531 91.2656 225.5625 124.875 Q259.1719 158.4844 259.1719 206.4375 ZM240.3281 206.4375 Q240.3281 166.2188 212.2734 138.0938 Q184.2188 109.9688 144 109.9688 Q103.7812 109.9688 75.6562 138.0938 Q47.5312 166.2188 47.5312 206.4375 Q47.5312 246.6562 75.6562 274.7109 Q103.7812 302.7656 144 302.7656 Q184.2188 302.7656 212.2734 274.7109 Q240.3281 246.6562 240.3281 206.4375 ZM167.625 147.0938 Q167.625 156.5156 160.5938 162.8438 Q153.5625 169.1719 144 169.1719 Q134.4375 169.1719 127.4062 162.8438 Q120.375 156.5156 120.375 147.0938 Q120.375 137.6719 127.4062 131.3438 Q134.4375 125.0156 144 125.0156 Q153.5625 125.0156 160.5938 131.3438 Q167.625 137.6719 167.625 147.0938 ZM163.2656 292.5 L124.5938 292.5 L124.5938 182.8125 L163.2656 182.8125 L163.2656 292.5 Z" stroke="none" />
    </g>
  </g>
</svg>
