<?xml version="1.0" encoding="utf-8"?>
<!-- Generator: Adobe Illustrator 22.0.0, SVG Export Plug-In . SVG Version: 6.00 Build 0)  -->
<svg version="1.1" id="Lager_1" xmlns="http://www.w3.org/2000/svg" xmlns:xlink="http://www.w3.org/1999/xlink" x="0px" y="0px"
	 viewBox="0 0 2271.4 1110" style="enable-background:new 0 0 2271.4 1110;" xml:space="preserve">
<style type="text/css">
	.st0{clip-path:url(#SVGID_2_);}
	.st1{fill:#B1E2EF;}
	.st2{fill:#7DE0FF;}
	.st3{fill:#8BE7FC;}
	.st4{fill:#60D8F4;}
	.st5{fill:#D7F5FF;}
</style>
<title>skyandwater</title>
<g>
	<g>
		<g>
			<defs>
				<polygon id="SVGID_1_" points="-2.9,1117.6 2269.4,1120 2269.4,-0.5 -2.9,-2.8 				"/>
			</defs>
			<clipPath id="SVGID_2_">
				<use xlink:href="#SVGID_1_"  style="overflow:visible;"/>
			</clipPath>
			<g class="st0">
				<polygon class="st1" points="-4.9,0 2268.6,0 2314,923 -22,928 				"/>
				<path class="st2" d="M-8.1,813.9l8,60c0,1,0.7,1.8,1.7,1.8c581.6,39.2,1254.4,9.5,2268.3,4.6v-74.2H1.7
					C-3.8,806.7-15.6,813.6-8.1,813.9z"/>
				<path class="st3" d="M1201.8,806.2v17c271.3,9.6,594.9,2.3,1068,1.2v-18.2H1201.8z"/>
				<path class="st4" d="M2172.2,806.3c-3.7-0.3-7.4-0.3-11.1,0.2c-37.7,3.9-81.1-20.2-111.8-12.9c-15,3.6-31.8,8.7-52.4,14.6
					c25.6,9.4,51.8,16.4,79.2,18.4C2109.5,828.6,2141.3,817.7,2172.2,806.3z"/>
				<path class="st4" d="M1724.8,836.2c36.1,13.6,116.4-7.2,170.1,7.3s97.8-26.7,164.6,0c66.8,26.7,110-60.7,99.1-54.4
					c-37.8,21.8-64.6-12.5-107.1,14.8c-28.9,18.5-115.4-27.8-155.9-4.5s-135.4-0.5-176.4,17.3c-27.2,11.8-49-5.7-81.2,4.9
					s9.5,16.8,31.4,11S1711.8,831.3,1724.8,836.2z"/>
				<path class="st2" d="M1724.8,836.2c36.1,13.6,114.8-14.2,168.5,0.4s99.3-19.8,166.2,6.9c66.8,26.7,110-60.7,99.1-54.4
					c-37.8,21.8-64.6-12.5-107.1,14.8c-28.9,18.5-115.4-27.8-155.9-4.5s-135.4-0.5-176.4,17.3c-27.2,11.8-49-5.7-81.2,4.9
					s9.5,16.8,31.4,11S1711.8,831.3,1724.8,836.2z"/>
				<path class="st3" d="M2033.9,818.6c19.1,2.7,37.4,1.1,56.1-0.8c22-2.3,40.5-13.4,59-24.3c-33,11.9-58.7-14.6-97.5,10.3
					c-25,16.1-93.3-16.6-137.4-10.4c27.1,4.4,53.8,13.3,82.1,19C2009.1,815.2,2020.9,817,2033.9,818.6z"/>
				<path class="st3" d="M1817.9,815.5c12.2-0.3,24.2-2.2,35.9-5.8c-45.3,3.3-104.4-6.1-134.5,7c-1.5,0.7-3,1.2-4.5,1.7
					C1749.5,814.6,1783.2,815.5,1817.9,815.5z"/>
				<path class="st3" d="M1638.1,821.6c-9.7,3.2-12.7,6-11.5,8.2c23.1-1.9,46-5.2,69.3-8.8C1678.1,820.6,1660.6,814.2,1638.1,821.6z
					"/>
				<path class="st4" d="M1883.3,794.4c-15.3-17.5-45-10.4-50.1-3.4s-1.9,11.7,18.4,8.7S1886.1,797.7,1883.3,794.4z"/>
				<path class="st2" d="M1870.2,785.7c-15.1-5.3-33.1,0-37,5.4c-2.3,3.2-2.9,5.8-1.1,7.6C1845.5,796,1860.7,795,1870.2,785.7z"/>
				<path class="st4" d="M2046.8,801.2c-6.2-16.8-29.6-19.8-35.2-16.2s-4.6,7.9,10.9,11.3C2037.9,799.7,2047.9,804.4,2046.8,801.2z"
					/>
				<path class="st2" d="M2039.7,791.4c-9.5-8-23.9-9.1-28.2-6.3c-2.5,1.7-3.7,3.4-2.8,5.2C2019.1,792,2030.3,795.5,2039.7,791.4z"
					/>
				<path class="st2" d="M1790.8,803.6c-2.6-12.5-18.8-17.2-23.2-15.2s-4.1,5.1,6.5,9.1S1791.3,806,1790.8,803.6z"/>
				<path class="st3" d="M1767.6,788.5c-0.8,0.3-1.6,0.8-2.2,1.5c6.3,5.1,14.8,7.8,23,8C1783.1,789.7,1771.3,786.8,1767.6,788.5z"/>
				<path class="st4" d="M1216.8,833.6c3.7,0.3,7.4,0.3,11.1-0.2c37.7-3.9,81.1,20.2,111.8,12.9c15-3.6,31.8-8.7,52.4-14.6
					c-25.6-9.4-51.8-16.4-79.2-18.4C1279.5,811.3,1247.7,822.2,1216.8,833.6z"/>
				<path class="st4" d="M1664.2,803.8c-36.1-13.6-116.4,7.2-170.1-7.3s-97.8,26.7-164.6,0s-110,60.7-99.1,54.4
					c37.8-21.8,64.6,12.5,107-14.8c28.8-18.5,115.4,27.8,155.9,4.5s135.4,0.5,176.4-17.3c27.2-11.8,49,5.7,81.1-4.9
					s-9.5-16.8-31.4-11S1677.2,808.6,1664.2,803.8z"/>
				<path class="st2" d="M1664.2,803.8c-36.1-13.6-114.8,14.2-168.5-0.4s-99.3,19.8-166.2-6.9s-110,60.7-99.1,54.4
					c37.8-21.8,64.6,12.5,107-14.8c28.8-18.5,115.4,27.8,155.9,4.5s135.4,0.5,176.4-17.3c27.2-11.8,49,5.7,81.1-4.9
					s-9.5-16.8-31.4-11S1677.2,808.6,1664.2,803.8z"/>
				<path class="st3" d="M1355.1,821.3c-19.1-2.7-37.4-1.1-56.1,0.8c-22,2.3-40.5,13.4-59,24.3c33-11.9,58.7,14.6,97.5-10.3
					c25-16.1,93.3,16.6,137.4,10.4c-27.2-4.4-53.8-13.3-82.1-19C1379.9,824.8,1368.1,822.9,1355.1,821.3z"/>
				<path class="st3" d="M1571.1,824.4c-12.2,0.3-24.2,2.2-35.9,5.8c45.3-3.3,104.4,6.1,134.5-7c1.5-0.6,3-1.2,4.5-1.7
					C1639.5,825.3,1605.8,824.4,1571.1,824.4z"/>
				<path class="st3" d="M1750.9,818.3c9.7-3.2,12.7-6,11.5-8.2c-23.1,1.9-46,5.2-69.3,8.8C1710.9,819.3,1728.4,825.7,1750.9,818.3z
					"/>
				<path class="st4" d="M1505.7,845.5c15.3,17.5,45,10.4,50.1,3.4s1.9-11.7-18.4-8.7S1502.9,842.2,1505.7,845.5z"/>
				<path class="st2" d="M1518.8,854.2c15.1,5.3,33.1,0,37-5.4c2.3-3.2,2.9-5.8,1.1-7.6C1543.5,844,1528.3,844.9,1518.8,854.2z"/>
				<path class="st4" d="M1342.2,838.7c6.2,16.8,29.6,19.8,35.2,16.2s4.6-7.9-10.9-11.3S1341.1,835.5,1342.2,838.7z"/>
				<path class="st2" d="M1349.3,848.5c9.5,8,23.9,9.1,28.2,6.3c2.5-1.7,3.7-3.4,2.8-5.2C1369.9,847.9,1358.7,844.4,1349.3,848.5z"
					/>
				<path class="st2" d="M1598.2,836.3c2.6,12.5,18.8,17.2,23.2,15.2s4.1-5.1-6.5-9.1S1597.7,833.9,1598.2,836.3z"/>
				<path class="st3" d="M1621.4,851.5c0.8-0.3,1.6-0.8,2.2-1.5c-6.3-5.1-14.8-7.7-23-8C1606,850.2,1617.8,853.1,1621.4,851.5z"/>
				<path class="st4" d="M738,819.8c3.7,0.3,7.4,0.3,11.1-0.2c37.7-3.9,81.1,20.2,111.8,12.9c15-3.6,31.8-8.7,52.5-14.6
					c-25.6-9.4-51.8-16.4-79.2-18.4C800.7,797.5,768.8,808.5,738,819.8z"/>
				<path class="st4" d="M1185.4,790c-36.1-13.6-116.4,7.2-170.1-7.3s-97.8,26.7-164.6,0s-110,60.7-99.1,54.4
					c37.8-21.8,64.6,12.5,107.1-14.8c28.8-18.5,115.4,27.8,155.9,4.5s135.4,0.5,176.4-17.3c27.2-11.8,49,5.7,81.1-4.9
					s-9.5-16.8-31.4-10.9S1198.4,794.9,1185.4,790z"/>
				<path class="st2" d="M1185.4,790c-36.1-13.6-114.8,14.2-168.5-0.4s-99.3,19.8-166.2-6.9s-110,60.7-99.1,54.4
					c37.8-21.8,64.6,12.5,107.1-14.8c28.8-18.5,115.4,27.8,155.9,4.5c40.5-23.4,135.4,0.5,176.4-17.3c27.2-11.8,49,5.7,81.1-4.9
					s-9.5-16.8-31.4-10.9S1198.4,794.9,1185.4,790z"/>
				<path class="st3" d="M876.2,807.6c-19.1-2.7-37.4-1.2-56.1,0.8c-22,2.3-40.5,13.4-59,24.3c33-11.9,58.7,14.6,97.5-10.3
					c25-16.1,93.3,16.6,137.4,10.4c-27.2-4.4-53.8-13.3-82.1-19C901,811,889.2,809.1,876.2,807.6z"/>
				<path class="st3" d="M1092.2,810.6c-12.2,0.3-24.2,2.2-35.9,5.8c45.3-3.3,104.4,6.1,134.5-7c1.5-0.7,3-1.2,4.5-1.7
					C1160.6,811.6,1126.9,810.6,1092.2,810.6z"/>
				<path class="st3" d="M1272.1,804.5c9.7-3.2,12.7-6,11.5-8.2c-23.1,1.9-46,5.2-69.3,8.8C1232,805.6,1249.5,812,1272.1,804.5z"/>
				<path class="st4" d="M1026.9,831.7c15.3,17.5,45,10.4,50.1,3.4s1.9-11.7-18.4-8.7S1024,828.5,1026.9,831.7z"/>
				<path class="st2" d="M1039.9,840.5c15.1,5.3,33.1,0,37-5.4c2.3-3.2,2.9-5.8,1.1-7.6C1064.6,830.2,1049.5,831.2,1039.9,840.5z"/>
				<path class="st4" d="M863.4,824.9c6.2,16.8,29.6,19.8,35.2,16.2s4.6-7.9-10.9-11.3S862.2,821.8,863.4,824.9z"/>
				<path class="st2" d="M870.4,834.8c9.5,8,23.9,9.1,28.2,6.3c2.5-1.7,3.7-3.4,2.8-5.2C891.1,834.2,879.9,830.7,870.4,834.8z"/>
				<path class="st2" d="M1119.3,822.5c2.6,12.5,18.8,17.2,23.2,15.2s4.1-5.1-6.5-9.1S1118.9,820.2,1119.3,822.5z"/>
				<path class="st3" d="M1142.6,837.7c0.8-0.3,1.6-0.8,2.2-1.5c-6.3-5.1-14.8-7.8-23-8C1127.1,836.4,1138.9,839.3,1142.6,837.7z"/>
				<path class="st4" d="M293.8,833.5c3.7,0.3,7.4,0.3,11.1-0.2c37.7-3.9,81.1,20.2,111.8,12.9c15-3.6,31.8-8.7,52.5-14.6
					c-25.6-9.4-51.8-16.4-79.2-18.4C356.5,811.3,324.7,822.2,293.8,833.5z"/>
				<path class="st4" d="M741.2,803.7c-36.1-13.6-116.4,7.2-170.1-7.3s-97.8,26.7-164.6,0s-110,60.7-99.1,54.4
					c37.8-21.8,64.6,12.5,107-14.8c28.9-18.5,115.4,27.8,155.9,4.5s135.4,0.5,176.4-17.3c27.2-11.8,49,5.7,81.1-4.9
					s-9.5-16.8-31.4-10.9S754.2,808.6,741.2,803.7z"/>
				<path class="st2" d="M741.2,803.7c-36.1-13.6-114.8,14.2-168.5-0.4s-99.3,19.8-166.2-6.9s-110,60.7-99.1,54.4
					c37.8-21.8,64.6,12.5,107-14.8c28.9-18.5,115.4,27.8,155.9,4.5s135.4,0.5,176.4-17.3c27.2-11.8,49,5.7,81.1-4.9
					s-9.5-16.8-31.4-10.9S754.2,808.6,741.2,803.7z"/>
				<path class="st3" d="M432.1,821.3c-19.1-2.7-37.4-1.2-56.1,0.8c-22,2.3-40.5,13.4-59,24.3c33-11.9,58.7,14.6,97.5-10.3
					c25-16.1,93.3,16.6,137.4,10.4c-27.2-4.4-53.8-13.3-82.1-19C456.9,824.7,445.1,822.8,432.1,821.3z"/>
				<path class="st3" d="M648.1,824.3c-12.2,0.3-24.2,2.2-35.9,5.8c45.3-3.3,104.4,6.1,134.5-7c1.5-0.7,3-1.2,4.5-1.7
					C716.5,825.3,682.8,824.3,648.1,824.3z"/>
				<path class="st3" d="M827.9,818.3c9.7-3.2,12.7-6,11.5-8.2c-23.1,1.9-46,5.2-69.3,8.8C787.9,819.3,805.4,825.7,827.9,818.3z"/>
				<path class="st4" d="M582.7,845.5c15.3,17.5,45,10.4,50.1,3.4s1.9-11.7-18.4-8.7S579.9,842.2,582.7,845.5z"/>
				<path class="st2" d="M595.8,854.2c15.1,5.3,33.1,0,37-5.4c2.3-3.2,2.9-5.8,1.1-7.6C620.5,843.9,605.3,844.9,595.8,854.2z"/>
				<path class="st4" d="M419.2,838.6c6.2,16.8,29.6,19.8,35.2,16.2s4.6-7.9-10.9-11.3S418.1,835.5,419.2,838.6z"/>
				<path class="st2" d="M426.3,848.5c9.5,8,23.9,9.1,28.2,6.3c2.5-1.7,3.7-3.4,2.9-5.2C446.9,847.9,435.7,844.4,426.3,848.5z"/>
				<path class="st2" d="M675.2,836.2c2.6,12.5,18.8,17.2,23.2,15.2s4.1-5.1-6.5-9.1S674.7,833.9,675.2,836.2z"/>
				<path class="st3" d="M698.4,851.4c0.8-0.3,1.6-0.8,2.2-1.5c-6.3-5.1-14.8-7.8-23-8C683,850.2,694.8,853.1,698.4,851.4z"/>
				<path class="st4" d="M14,867.8c-1,0.3-1.5,1.4-1.1,2.4c0.3,0.8,1.1,1.3,1.9,1.2l0,0c37.7-3.9,0.5-20.4,31.2-27.7
					c15-3.6,31.8-8.7,52.4-14.6c-25.6-9.4-51.8-16.4-79.2-18.4C-10.4,808.9,41.7,857.9,14,867.8z"/>
				<path class="st4" d="M370.6,801.2c-36.1-13.6-116.4,7.2-170.1-7.3S64,835.9-2.9,809.2s9.4,86,20.3,79.7
					c37.8-21.8-16-28.2,26.5-55.4c28.8-18.5,115.4,27.8,155.9,4.5s135.4,0.5,176.4-17.3c27.1-11.8,49,5.7,81.1-4.9
					s-9.5-16.8-31.4-10.9S383.6,806,370.6,801.2z"/>
				<path class="st2" d="M370.6,801.2c-36.1-13.6-114.8,14.2-168.5-0.4s-132.3,6.4-204.3,8.4c-63.6,1.8,8.7,86,19.6,79.7
					c37.8-21.8-16-28.2,26.5-55.4c28.8-18.5,115.4,27.8,155.9,4.5s135.4,0.5,176.4-17.3c27.1-11.8,49,5.7,81.1-4.9
					s-9.5-16.8-31.4-10.9S383.6,806,370.6,801.2z"/>
				<path class="st3" d="M277.5,821.7c-12.2,0.3-24.2,2.2-35.9,5.8c45.3-3.3,104.5,6.1,134.5-7c1.5-0.7,3-1.2,4.5-1.7
					C345.9,822.7,312.2,821.7,277.5,821.7z"/>
				<path class="st3" d="M457.3,815.7c9.7-3.2,12.7-6,11.5-8.2c-23.1,1.9-46,5.2-69.3,8.8C417.3,816.7,434.8,823.1,457.3,815.7z"/>
				<path class="st4" d="M212.1,842.8c15.3,17.5,45,10.4,50.1,3.4s1.9-11.7-18.4-8.7S209.3,839.6,212.1,842.8z"/>
				<path class="st2" d="M225.2,851.6c15.1,5.3,33.1,0,37-5.4c2.3-3.2,2.9-5.8,1.1-7.6C249.9,841.3,234.7,842.2,225.2,851.6z"/>
				<path class="st4" d="M48.7,836c6.2,16.8,29.6,19.8,35.2,16.2s4.6-7.9-10.9-11.3S47.5,832.9,48.7,836z"/>
				<path class="st2" d="M55.7,845.9c9.5,8,23.9,9.1,28.2,6.3c2.5-1.7,3.7-3.4,2.8-5.2C76.3,845.2,65.1,841.8,55.7,845.9z"/>
				<path class="st2" d="M304.6,833.6c2.6,12.5,18.8,17.2,23.2,15.2s4.1-5.1-6.5-9.1S304.1,831.3,304.6,833.6z"/>
				<path class="st3" d="M327.8,848.8c0.8-0.3,1.6-0.8,2.2-1.5c-6.3-5.1-14.8-7.8-23-8C312.4,847.5,324.2,850.5,327.8,848.8z"/>
				<path class="st5" d="M1619.8,302.5c-14.8-19.6-42.5-24-62.7-10c-9.1-35.9-45.6-57.6-81.4-48.4c-4.2,1.1-8.4,2.6-12.3,4.4
					c-21.8-43.5-74.7-61.2-118.2-39.5c-24.3,12.1-41.6,34.8-47,61.4c-21.3-5.5-43,7.4-48.4,28.7c-0.3,1.1-0.5,2.2-0.7,3.4H1619.8z"
					/>
				<path class="st5" d="M487.8,368.4c12.5-16.5,35.7-20.2,52.7-8.4c7.7-30.1,38.3-48.3,68.5-40.7c3.5,0.9,7,2.1,10.3,3.7
					c18.2-36.6,62.6-51.5,99.2-33.3c20.5,10.2,35.1,29.3,39.6,51.7c2.7-0.7,5.5-1,8.3-1c16.4,0,30.3,11.8,33,28L487.8,368.4z"/>
				<path class="st5" d="M681.9,183.2c-8.7-11.5-25-14.1-36.9-5.9c-5.4-21.1-26.9-33.9-48-28.5c-2.5,0.6-4.9,1.5-7.2,2.6
					c-12.8-25.6-44-36-69.6-23.2c-14.3,7.1-24.5,20.5-27.7,36.1c-1.9-0.5-3.8-0.7-5.8-0.7c-11.5,0-21.2,8.3-23.1,19.6L681.9,183.2
					L681.9,183.2z"/>
				<path class="st5" d="M1784.3,196.1c12.5-16.5,35.7-20.2,52.7-8.4c7.7-30.1,38.3-48.3,68.4-40.7c3.5,0.9,7,2.1,10.3,3.7
					c18.2-36.6,62.7-51.5,99.2-33.2c20.4,10.2,35,29.2,39.5,51.6c17.9-4.5,36.1,6.3,40.7,24.2c0.2,0.9,0.4,1.8,0.6,2.7L1784.3,196.1
					z"/>
				<path class="st2" d="M1.5,948c581.6,39.1,1242.8,275,2268.3,4.6v-74.1H1.6"/>
				<path class="st3" d="M1199.5,856.5"/>
				<path class="st3" d="M1199.5,873.4c271.3,9.6,594.9,2.3,1068,1.2v-18.1"/>
				<path class="st3" d="M-0.1,878.6v-18.1h1295.3"/>
				<path class="st3" d="M1295.2,877.4"/>
			</g>
		</g>
	</g>
</g>
<path class="st3" d="M1395.5,933.5"/>
<path class="st3" d="M1491.2,954.4"/>
</svg>
